HIERARCHY
ROOT SpineBase
{
  OFFSET 0.000000 0.000000 0.000000
  CHANNELS 6 Xposition Yposition Zposition Zrotation Xrotation Yrotation
  JOINT SpineMid
  {
    OFFSET 0.000000 30.861853 0.000000
    CHANNELS 3 Zrotation Xrotation Yrotation
    JOINT SpineShoulder
    {
      OFFSET 0.186516 22.721106 -1.067149
      CHANNELS 3 Zrotation Xrotation Yrotation
      JOINT Neck
      {
        OFFSET 0.092441 7.462565 -0.596498
        CHANNELS 3 Zrotation Xrotation Yrotation
        JOINT Head
        {
          OFFSET 2.364108 11.758853 0.003825
          CHANNELS 3 Zrotation Xrotation Yrotation
          End Site
          {
            OFFSET 0 0 0
          }
        }
      }
      JOINT ShoulderLeft
      {
        OFFSET -9.300482 -3.961108 -9.169469
        CHANNELS 3 Zrotation Xrotation Yrotation
        JOINT ElbowLeft
        {
          OFFSET -4.967477 -23.160819 -1.471036
          CHANNELS 3 Zrotation Xrotation Yrotation
          JOINT WristLeft
          {
            OFFSET 4.222114 -21.312916 -2.694388
            CHANNELS 3 Zrotation Xrotation Yrotation
            JOINT HandLeft
            {
              OFFSET -0.519589 -4.781973 -0.250795
              CHANNELS 3 Zrotation Xrotation Yrotation
              JOINT HandTipLeft
              {
                OFFSET 0.989263 -6.269297 0.913517
                CHANNELS 3 Zrotation Xrotation Yrotation
                End Site
                {
                  OFFSET 0 0 0
                }
              }
              JOINT ThumbLeft
              {
                OFFSET -3.517580 -1.212926 -2.317574
                CHANNELS 3 Zrotation Xrotation Yrotation
                End Site
                {
                  OFFSET 0 0 0
                }
              }
            }
          }
        }
      }
      JOINT ShoulderRight
      {
        OFFSET 11.629455 -8.768756 3.669835
        CHANNELS 3 Zrotation Xrotation Yrotation
        JOINT ElbowRight
        {
          OFFSET 4.703170 -25.480393 -2.250496
          CHANNELS 3 Zrotation Xrotation Yrotation
          JOINT WristRight
          {
            OFFSET 2.836861 -11.962819 18.559270
            CHANNELS 3 Zrotation Xrotation Yrotation
            JOINT HandRight
            {
              OFFSET -3.979562 -7.219856 -0.021652
              CHANNELS 3 Zrotation Xrotation Yrotation
              JOINT HandTipRight
              {
                OFFSET 1.113589 -2.212991 0.051955
                CHANNELS 3 Zrotation Xrotation Yrotation
                End Site
                {
                  OFFSET 0 0 0
                }
              }
              JOINT ThumbRight
              {
                OFFSET 1.476052 0.670836 -0.077477
                CHANNELS 3 Zrotation Xrotation Yrotation
                End Site
                {
                  OFFSET 0 0 0
                }
              }
            }
          }
        }
      }
    }
  }
  JOINT HipLeft
  {
    OFFSET -6.703768 1.373692 -6.811130
    CHANNELS 3 Zrotation Xrotation Yrotation
    JOINT KneeLeft
    {
      OFFSET -0.008350 -26.974623 9.273673
      CHANNELS 3 Zrotation Xrotation Yrotation
      JOINT AnkleLeft
      {
        OFFSET -8.650592 -33.656871 7.821716
        CHANNELS 3 Zrotation Xrotation Yrotation
        JOINT FootLeft
        {
          OFFSET 4.955304 -4.726939 -10.398720
          CHANNELS 3 Zrotation Xrotation Yrotation
          End Site
          {
            OFFSET 0 0 0
          }
        }
      }
    }
  }
  JOINT HipRight
  {
    OFFSET 6.668912 -0.480476 0.550619
    CHANNELS 3 Zrotation Xrotation Yrotation
    JOINT KneeRight
    {
      OFFSET -3.127655 -25.923101 14.477325
      CHANNELS 3 Zrotation Xrotation Yrotation
      JOINT AnkleRight
      {
        OFFSET -9.786060 -35.664247 12.239944
        CHANNELS 3 Zrotation Xrotation Yrotation
        JOINT FootRight
        {
          OFFSET 4.187423 -6.423160 -0.451604
          CHANNELS 3 Zrotation Xrotation Yrotation
          End Site
          {
            OFFSET 0 0 0
          }
        }
      }
    }
  }
}
MOTION
Frames: 6
Frame Time: 0.033333
11.862474 69.951411 345.672954 0.314894 -12.337107 -28.112422 0.329296 0.697705 28.217471 0.686818 -0.063099 0.064818 -12.364187 6.293100 2.695633 0.000000 0.000000 0.000000 -4.765005 13.314950 0.484079 29.716440 -11.595650 -2.164413 -1.570520 -24.042071 14.097830 2.381790 27.282460 -6.799436 0.000000 0.000000 0.000000 0.000000 0.000000 0.000000 -9.882619 15.376976 3.230841 3.617778 18.354228 -3.439361 84.020608 -53.772180 98.633779 -63.731200 65.019689 17.536818 0.000000 0.000000 0.000000 0.000000 0.000000 0.000000 -11.999380 38.057193 34.628477 -7.538367 -14.695120 -7.057117 -3.939683 -19.671371 -3.446798 0.000000 0.000000 0.000000 11.544645 17.578812 35.016859 -32.341933 4.754908 -12.732796 -35.933400 42.068281 67.964193 0.000000 0.000000 0.000000
12.145688 69.037956 343.016837 -0.545686 -12.675377 -25.013336 0.249901 0.593048 24.998268 0.526148 0.019916 0.034137 -13.062104 8.965452 2.790472 0.000000 0.000000 0.000000 -0.440141 12.223404 -0.141246 25.722193 -13.974230 -2.799398 -0.671745 -21.410075 14.281171 -4.066001 31.125260 -4.436945 0.000000 0.000000 0.000000 0.000000 0.000000 0.000000 -8.676580 15.886790 3.277864 3.562360 18.053185 -3.491236 81.840185 -52.416383 94.551846 -70.422446 62.461025 23.045327 0.000000 0.000000 0.000000 0.000000 0.000000 0.000000 -7.668071 37.548040 30.054193 -6.028067 -12.188143 -6.377807 -5.006444 -19.413517 -3.492886 0.000000 0.000000 0.000000 10.138278 18.604972 30.627859 -31.266380 -1.913184 -11.961124 -28.873719 50.059249 65.993253 0.000000 0.000000 0.000000
12.103120 68.221981 340.156785 -1.958046 -13.459744 -20.942069 0.035393 0.416460 20.721581 0.328834 -0.095614 -0.014106 -11.241815 14.591585 2.509577 0.000000 0.000000 0.000000 3.577177 12.709471 -0.730247 22.900704 -17.643822 -2.874244 -1.436805 -19.132635 14.735175 -6.840162 36.866785 -3.119618 0.000000 0.000000 0.000000 0.000000 0.000000 0.000000 -6.882444 16.831037 3.361078 3.614966 17.950971 -3.531675 79.161811 -49.903074 88.759806 -75.959057 60.143685 27.580557 0.000000 0.000000 0.000000 0.000000 0.000000 0.000000 -1.887910 36.822759 24.050267 -5.588483 -10.448935 -5.855728 -5.488102 -17.057177 -2.558523 0.000000 0.000000 0.000000 7.410386 18.039432 24.399877 -24.901308 -7.647087 -8.832974 -13.700912 57.457986 53.758612 0.000000 0.000000 0.000000
12.234968 67.360168 337.035042 -3.319348 -14.325321 -19.031667 -0.219772 0.703307 18.594420 0.500630 -0.044915 -0.069430 -12.070081 19.976700 2.707184 0.000000 0.000000 0.000000 6.662748 11.921491 -1.027185 19.541411 -20.269264 -3.513996 -2.929712 -18.540367 15.611924 -12.119797 37.592246 -0.440349 0.000000 0.000000 0.000000 0.000000 0.000000 0.000000 -5.566370 17.333234 3.372194 3.603431 17.939738 -3.539446 77.112454 -48.233942 84.462357 -81.663114 56.880276 31.793093 0.000000 0.000000 0.000000 0.000000 0.000000 0.000000 2.529749 35.276281 20.702037 -6.257552 -8.653633 -5.731719 -4.545061 -13.803465 -2.378485 0.000000 0.000000 0.000000 3.373000 16.159147 20.301548 -16.274929 -10.720883 -4.272051 -7.012077 57.171933 43.409783 0.000000 0.000000 0.000000
12.520236 66.802909 333.960245 -4.751645 -14.779265 -15.964802 -0.092550 1.103448 15.270971 0.362370 -0.106058 -0.105335 -12.338300 24.450167 2.898847 0.000000 0.000000 0.000000 9.200024 11.106468 -1.193276 16.806086 -23.289606 -4.078200 -6.389802 -13.650529 15.526046 -15.423657 37.624123 2.090934 0.000000 0.000000 0.000000 0.000000 0.000000 0.000000 -4.239118 17.508340 3.340881 3.616533 17.940144 -3.553294 76.925693 -47.986131 83.987978 -76.949437 56.018928 25.968413 0.000000 0.000000 0.000000 0.000000 0.000000 0.000000 7.517698 32.699000 16.131265 -7.098078 -6.602186 -5.644446 -2.995513 -10.062900 -2.034284 0.000000 0.000000 0.000000 -0.109635 13.094428 14.988717 -6.624415 -10.772020 0.609742 1.999113 56.743077 32.051930 0.000000 0.000000 0.000000
12.913823 66.554949 331.188456 -5.995107 -14.846472 -12.644076 0.140487 1.476534 11.731691 0.106977 -0.228745 -0.133093 -12.284199 28.605092 2.991170 0.000000 0.000000 0.000000 11.408871 10.665461 -1.418842 13.101005 -26.468905 -4.452858 -7.759465 -8.799762 15.329934 -10.757036 35.772728 0.096178 0.000000 0.000000 0.000000 0.000000 0.000000 0.000000 -3.012364 17.382965 3.280618 3.624531 17.947181 -3.564872 77.807920 -48.841669 85.972664 -76.756657 57.425445 26.671348 0.000000 0.000000 0.000000 0.000000 0.000000 0.000000 11.188653 29.448946 11.807581 -7.532423 -5.153609 -5.229738 -3.243355 -10.950953 -2.949273 0.000000 0.000000 0.000000 -3.145706 9.899426 9.600549 2.872970 -8.219713 4.746083 5.747945 53.985377 24.179119 0.000000 0.000000 0.000000
